<svg width="14" height="16" viewBox="0 0 14 16" fill="none" xmlns="http://www.w3.org/2000/svg">
<path d="M10.5 2.94443H9.91667V2.31249C9.91667 2.14488 9.85521 1.98415 9.74581 1.86563C9.63642 1.74712 9.48804 1.68054 9.33333 1.68054C9.17862 1.68054 9.03025 1.74712 8.92085 1.86563C8.81146 1.98415 8.75 2.14488 8.75 2.31249V2.94443H5.25V2.31249C5.25 2.14488 5.18854 1.98415 5.07915 1.86563C4.96975 1.74712 4.82138 1.68054 4.66667 1.68054C4.51196 1.68054 4.36358 1.74712 4.25419 1.86563C4.14479 1.98415 4.08333 2.14488 4.08333 2.31249V2.94443H3.5C3.03587 2.94443 2.59075 3.14417 2.26256 3.49971C1.93437 3.85525 1.75 4.33746 1.75 4.84026V12.4236C1.75 12.9264 1.93437 13.4086 2.26256 13.7642C2.59075 14.1197 3.03587 14.3194 3.5 14.3194H10.5C10.9641 14.3194 11.4092 14.1197 11.7374 13.7642C12.0656 13.4086 12.25 12.9264 12.25 12.4236V4.84026C12.25 4.33746 12.0656 3.85525 11.7374 3.49971C11.4092 3.14417 10.9641 2.94443 10.5 2.94443ZM4.66667 11.1597C4.55129 11.1597 4.43851 11.1226 4.34258 11.0532C4.24666 10.9838 4.17189 10.8851 4.12774 10.7696C4.08359 10.6541 4.07203 10.5271 4.09454 10.4045C4.11705 10.2819 4.17261 10.1693 4.25419 10.0809C4.33577 9.99253 4.43971 9.93235 4.55286 9.90796C4.66602 9.88358 4.78331 9.89609 4.8899 9.94392C4.99649 9.99175 5.08759 10.0728 5.15169 10.1767C5.21579 10.2806 5.25 10.4028 5.25 10.5278C5.25 10.6954 5.18854 10.8561 5.07915 10.9746C4.96975 11.0931 4.82138 11.1597 4.66667 11.1597ZM9.33333 11.1597H7C6.84529 11.1597 6.69692 11.0931 6.58752 10.9746C6.47812 10.8561 6.41667 10.6954 6.41667 10.5278C6.41667 10.3602 6.47812 10.1994 6.58752 10.0809C6.69692 9.9624 6.84529 9.89582 7 9.89582H9.33333C9.48804 9.89582 9.63642 9.9624 9.74581 10.0809C9.85521 10.1994 9.91667 10.3602 9.91667 10.5278C9.91667 10.6954 9.85521 10.8561 9.74581 10.9746C9.63642 11.0931 9.48804 11.1597 9.33333 11.1597ZM11.0833 7.36804H2.91667V4.84026C2.91667 4.67266 2.97812 4.51192 3.08752 4.39341C3.19692 4.2749 3.34529 4.20832 3.5 4.20832H4.08333V4.84026C4.08333 5.00787 4.14479 5.1686 4.25419 5.28712C4.36358 5.40563 4.51196 5.47221 4.66667 5.47221C4.82138 5.47221 4.96975 5.40563 5.07915 5.28712C5.18854 5.1686 5.25 5.00787 5.25 4.84026V4.20832H8.75V4.84026C8.75 5.00787 8.81146 5.1686 8.92085 5.28712C9.03025 5.40563 9.17862 5.47221 9.33333 5.47221C9.48804 5.47221 9.63642 5.40563 9.74581 5.28712C9.85521 5.1686 9.91667 5.00787 9.91667 4.84026V4.20832H10.5C10.6547 4.20832 10.8031 4.2749 10.9125 4.39341C11.0219 4.51192 11.0833 4.67266 11.0833 4.84026V7.36804Z" fill="#0E2522" fill-opacity="0.7"/>
</svg>
