<svg width="12" height="14" viewBox="0 0 12 14" fill="none" xmlns="http://www.w3.org/2000/svg">
<path d="M5.60002 1.16666C4.67704 1.16666 3.77479 1.50878 3.00736 2.14975C2.23993 2.79073 1.64179 3.70177 1.28858 4.76767C0.935372 5.83357 0.842956 7.00646 1.02302 8.13802C1.20308 9.26957 1.64754 10.309 2.30019 11.1248C2.95283 11.9406 3.78435 12.4962 4.6896 12.7212C5.59484 12.9463 6.53315 12.8308 7.38587 12.3893C8.2386 11.9478 8.96743 11.2001 9.48021 10.2408C9.99299 9.28153 10.2667 8.15371 10.2667 6.99999C10.2667 6.23395 10.146 5.4754 9.91146 4.76767C9.67693 4.05994 9.33319 3.41688 8.89985 2.8752C8.46651 2.33353 7.95206 1.90385 7.38587 1.61069C6.81969 1.31754 6.21285 1.16666 5.60002 1.16666ZM7.46668 7.58332H5.60002C5.47625 7.58332 5.35755 7.52187 5.27003 7.41247C5.18252 7.30307 5.13335 7.1547 5.13335 6.99999V4.66666C5.13335 4.51195 5.18252 4.36357 5.27003 4.25418C5.35755 4.14478 5.47625 4.08332 5.60002 4.08332C5.72379 4.08332 5.84248 4.14478 5.93 4.25418C6.01752 4.36357 6.06668 4.51195 6.06668 4.66666V6.41666H7.46668C7.59045 6.41666 7.70915 6.47812 7.79667 6.58751C7.88418 6.69691 7.93335 6.84528 7.93335 6.99999C7.93335 7.1547 7.88418 7.30307 7.79667 7.41247C7.70915 7.52187 7.59045 7.58332 7.46668 7.58332Z" fill="#0E2522" fill-opacity="0.75"/>
</svg>
