<svg width="26" height="26" viewBox="0 0 26 26" fill="none" xmlns="http://www.w3.org/2000/svg">
<path d="M8.05169 22.8714L1.44678 16.2665L3.28708 14.4262L6.90576 14.2448L7.88785 9.82544L8.808 8.90529L16.1692 1.54407L22.7741 8.14898L25.3587 10.7335L17.9974 18.0947L17.0773 19.0149L12.6556 19.9947L12.4765 23.6156L10.6362 25.456L8.05169 22.8714Z" fill="white"/>
<path d="M7.58403 22.4038L1.44678 16.2665L3.48411 14.2292L7.18452 13.7227L12.5273 19.0655L12.0229 22.768L9.98557 24.8053L7.58403 22.4038Z" fill="#DC555E"/>
<path d="M7.51115 22.3309L1.44678 16.2665L3.28708 14.4262L6.76511 14.1042L7.88785 9.82544L8.808 8.90529L16.1692 1.54407L22.2336 7.60844L24.6066 9.98146L17.2454 17.3427L16.3252 18.2628L12.0444 19.3835L11.7245 22.8636L9.88417 24.7039L7.51115 22.3309Z" stroke="#0E2522" stroke-width="1.2"/>
<path d="M11.0938 18.433L9.14114 16.4804" stroke="#0E2522" stroke-width="1.2"/>
<path d="M8.32861 15.6682L6.70413 14.0437" stroke="#0E2522" stroke-width="1.2"/>
<path d="M16.4318 13.6428L15.176 6.97905L15.9906 6.16446L17.2464 12.8282L16.4318 13.6428ZM14.978 11.4649C14.7857 11.6573 14.5689 11.7874 14.3275 11.8553C14.0861 11.9231 13.841 11.9194 13.5921 11.8439C13.3394 11.7647 13.0981 11.6101 12.868 11.3801C12.638 11.15 12.4852 10.9106 12.4098 10.6617C12.3344 10.4128 12.3306 10.1676 12.3985 9.92627C12.4626 9.68114 12.5908 9.46241 12.7832 9.27007C12.9793 9.07397 13.198 8.94575 13.4394 8.88541C13.6807 8.81752 13.9259 8.8213 14.1748 8.89672C14.4274 8.96837 14.6688 9.11922 14.8988 9.34927C15.1251 9.57554 15.276 9.8169 15.3514 10.0733C15.4306 10.326 15.4362 10.573 15.3684 10.8144C15.3042 11.052 15.1741 11.2688 14.978 11.4649ZM14.4463 10.9219C14.5406 10.8276 14.5745 10.7069 14.5481 10.5598C14.5255 10.409 14.4142 10.2336 14.2144 10.0337C14.0145 9.83387 13.8391 9.72262 13.6883 9.69999C13.5412 9.67359 13.4205 9.70754 13.3262 9.80182C13.2319 9.8961 13.1942 10.0205 13.2131 10.1752C13.2357 10.326 13.347 10.5014 13.5468 10.7013C13.7467 10.9011 13.9221 11.0124 14.0729 11.035C14.2276 11.0539 14.352 11.0162 14.4463 10.9219ZM19.6393 10.5372C19.4432 10.7333 19.2244 10.8653 18.9831 10.9332C18.7455 10.9973 18.5023 10.9916 18.2533 10.9162C18.0007 10.837 17.7593 10.6824 17.5293 10.4524C17.2992 10.2223 17.1465 9.98284 17.0711 9.73393C16.9956 9.48503 16.99 9.24179 17.0541 9.0042C17.1182 8.75907 17.2483 8.53845 17.4444 8.34235C17.6405 8.14624 17.8593 8.01802 18.1006 7.95768C18.342 7.8898 18.5871 7.89357 18.836 7.969C19.0887 8.04065 19.33 8.1915 19.5601 8.42154C19.7901 8.65159 19.9429 8.89483 20.0183 9.15128C20.0937 9.40018 20.0975 9.64531 20.0296 9.88667C19.9655 10.1243 19.8354 10.3411 19.6393 10.5372ZM19.1019 9.99981C19.1962 9.90553 19.232 9.78296 19.2094 9.63211C19.1867 9.48126 19.0755 9.3059 18.8756 9.10602C18.6757 8.90615 18.5004 8.7949 18.3495 8.77227C18.1987 8.74964 18.0761 8.78547 17.9818 8.87975C17.8913 8.97026 17.8555 9.09282 17.8743 9.24744C17.897 9.39829 18.0082 9.57366 18.2081 9.77353C18.408 9.97341 18.5833 10.0847 18.7342 10.1073C18.8888 10.1261 19.0114 10.0903 19.1019 9.99981Z" fill="#0E2522"/>
</svg>
