<svg width="21" height="22" viewBox="0 0 21 22" fill="none" xmlns="http://www.w3.org/2000/svg">
<path fill-rule="evenodd" clip-rule="evenodd" d="M10.1556 0.852318C10.5696 0.852318 10.9056 1.18832 10.9056 1.60232C10.9056 2.01632 10.5696 2.35232 10.1556 2.35232H6.41657C3.83257 2.35232 2.16357 4.12232 2.16357 6.86132V15.1753C2.16357 17.9143 3.83257 19.6843 6.41657 19.6843H15.2406C17.8246 19.6843 19.4946 17.9143 19.4946 15.1753V11.1473C19.4946 10.7333 19.8306 10.3973 20.2446 10.3973C20.6586 10.3973 20.9946 10.7333 20.9946 11.1473V15.1753C20.9946 18.7693 18.6816 21.1843 15.2406 21.1843H6.41657C2.97557 21.1843 0.663574 18.7693 0.663574 15.1753V6.86132C0.663574 3.26732 2.97557 0.852318 6.41657 0.852318H10.1556ZM18.8652 1.73092L20.0822 2.94792C20.6752 3.53992 21.0012 4.32692 21.0002 5.16492C21.0002 6.00292 20.6742 6.78892 20.0822 7.37992L12.5732 14.8889C12.0222 15.4399 11.2882 15.7439 10.5082 15.7439H6.76218C6.56017 15.7439 6.36617 15.6619 6.22517 15.5169C6.08417 15.3729 6.00717 15.1779 6.01217 14.9749L6.10617 11.1959C6.12517 10.4439 6.42817 9.73692 6.96018 9.20392H6.96117L14.4342 1.73092C15.6562 0.510918 17.6432 0.510918 18.8652 1.73092ZM13.8186 4.46692L8.02117 10.2649C7.76217 10.5239 7.61517 10.8679 7.60617 11.2329L7.53118 14.2439H10.5082C10.8882 14.2439 11.2442 14.0969 11.5132 13.8279L17.3456 7.99392L13.8186 4.46692ZM15.4942 2.79192L14.8786 3.40592L18.4056 6.93392L19.0222 6.31892C19.3302 6.01092 19.5002 5.60092 19.5002 5.16492C19.5002 4.72792 19.3302 4.31692 19.0222 4.00892L17.8052 2.79192C17.1682 2.15692 16.1322 2.15692 15.4942 2.79192Z" fill="#0E2522"/>
</svg>
