<svg width="25" height="25" viewBox="0 0 25 25" fill="none" xmlns="http://www.w3.org/2000/svg">
<g clip-path="url(#clip0_168_975)">
<path d="M12.5057 20.2159L12.5057 20.2158L12.4941 20.2159L4.73064 12.4424C4.73013 12.4419 4.72962 12.4414 4.7291 12.4409C3.94072 11.6434 3.49854 10.5673 3.49854 9.44584C3.49854 8.32479 3.94043 7.24897 4.72832 6.45161C5.5229 5.6605 6.59853 5.21631 7.71987 5.21631C8.84216 5.21631 9.91866 5.66126 10.7134 6.45362C10.7135 6.45373 10.7137 6.45383 10.7138 6.45394L11.7928 7.53294L12.4999 8.24005L13.207 7.53294L14.286 6.45394C14.2861 6.45383 14.2862 6.45373 14.2863 6.45362C15.0811 5.66126 16.1576 5.21631 17.2799 5.21631C18.4012 5.21631 19.4768 5.66047 20.2713 6.45152C21.0593 7.24889 21.5012 8.32474 21.5012 9.44584C21.5012 10.5673 21.059 11.6435 20.2705 12.441C20.2701 12.4414 20.2696 12.4419 20.2691 12.4424L12.5057 20.2159Z" stroke="black" stroke-width="2"/>
</g>
<defs>
<clipPath id="clip0_168_975">
<rect width="24" height="24" fill="white" transform="translate(0.5 0.21582)"/>
</clipPath>
</defs>
</svg>
