<svg width="14" height="14" viewBox="0 0 14 14" fill="none" xmlns="http://www.w3.org/2000/svg">
<g clip-path="url(#clip0_178_1653)">
<path d="M10.6517 1.75H3.34833C2.92443 1.75 2.51789 1.9184 2.21814 2.21814C1.9184 2.51789 1.75 2.92443 1.75 3.34833V10.6517C1.75 11.0756 1.9184 11.4821 2.21814 11.7819C2.51789 12.0816 2.92443 12.25 3.34833 12.25H10.6517C11.0756 12.25 11.4821 12.0816 11.7819 11.7819C12.0816 11.4821 12.25 11.0756 12.25 10.6517V3.34833C12.25 2.92443 12.0816 2.51789 11.7819 2.21814C11.4821 1.9184 11.0756 1.75 10.6517 1.75ZM4.08333 6.41667H2.91667V5.25H4.08333V6.41667ZM2.91667 7.58333H4.08333V8.75H2.91667V7.58333ZM11.0833 6.41667H9.91667V5.25H11.0833V6.41667ZM9.91667 7.58333H11.0833V8.75H9.91667V7.58333ZM11.0833 3.34833V4.08333H9.91667V2.91667H10.6517C10.7084 2.91667 10.7645 2.92783 10.8169 2.94953C10.8692 2.97122 10.9168 3.00301 10.9569 3.0431C10.997 3.08318 11.0288 3.13077 11.0505 3.18314C11.0722 3.23551 11.0833 3.29165 11.0833 3.34833ZM3.34833 2.91667H4.08333V4.08333H2.91667V3.34833C2.91667 3.29165 2.92783 3.23551 2.94953 3.18314C2.97122 3.13077 3.00301 3.08318 3.0431 3.0431C3.08318 3.00301 3.13077 2.97122 3.18314 2.94953C3.23551 2.92783 3.29165 2.91667 3.34833 2.91667ZM2.91667 10.6517V9.91667H4.08333V11.0833H3.34833C3.29165 11.0833 3.23551 11.0722 3.18314 11.0505C3.13077 11.0288 3.08318 10.997 3.0431 10.9569C3.00301 10.9168 2.97122 10.8692 2.94953 10.8169C2.92783 10.7645 2.91667 10.7084 2.91667 10.6517ZM11.0833 10.6517C11.0833 10.7662 11.0379 10.8759 10.9569 10.9569C10.8759 11.0379 10.7662 11.0833 10.6517 11.0833H9.91667V9.91667H11.0833V10.6517Z" fill="#0E2522" fill-opacity="0.75"/>
</g>
<defs>
<clipPath id="clip0_178_1653">
<rect width="14" height="14" fill="white"/>
</clipPath>
</defs>
</svg>
