<svg width="28" height="29" viewBox="0 0 28 29" fill="none" xmlns="http://www.w3.org/2000/svg">
<path d="M14.0044 24.2V24.2L13.9951 24.2C13.9469 24.2003 13.8991 24.1911 13.8544 24.1728C13.8101 24.1547 13.7699 24.1282 13.7358 24.0947C13.7355 24.0943 13.7351 24.094 13.7348 24.0937L4.67505 15.0223C4.67462 15.0218 4.67418 15.0214 4.67375 15.021C3.68572 14.0219 3.13154 12.6735 3.13154 11.2684C3.13154 9.86348 3.68551 8.5153 4.67318 7.51631C5.66901 6.52428 7.0174 5.96724 8.4231 5.96724C9.82949 5.96724 11.1785 6.52482 12.1745 7.51776C12.1746 7.5179 12.1747 7.51804 12.1749 7.51817L13.4341 8.77737L13.9998 9.34306L14.5655 8.77737L15.8247 7.51817C15.8248 7.51804 15.8249 7.5179 15.8251 7.51776C16.821 6.52482 18.17 5.96724 19.5764 5.96724C20.9821 5.96724 22.3305 6.52427 23.3263 7.51628C24.314 8.51527 24.868 9.86346 24.868 11.2684C24.868 12.6735 24.3138 14.022 23.3257 15.021C23.3253 15.0214 23.3249 15.0219 23.3245 15.0223L14.2647 24.0937C14.2644 24.094 14.2641 24.0943 14.2637 24.0947C14.2297 24.1282 14.1894 24.1547 14.1452 24.1728C14.1005 24.1911 14.0527 24.2003 14.0044 24.2Z" stroke="#0E2522" stroke-width="1.6"/>
</svg>
