<svg width="21" height="22" viewBox="0 0 21 22" fill="none" xmlns="http://www.w3.org/2000/svg">
<path d="M13.31 20.7158C13.31 20.7158 13.1196 14.0698 13.0433 14.01C12.967 13.9502 8.06366 13.9278 7.95716 14.01C7.85066 14.0922 7.63244 20.7158 7.63244 20.7158H6.93994H4.15941C3.5817 20.7158 3.10903 20.2006 3.10903 19.5709C3.10903 19.5709 3.26855 12.9208 3.10903 12.9208H1.32337C0.840194 12.9208 0.951821 10.8817 1.30895 10.5382L9.56498 2.00777C9.96412 1.6185 10.5733 1.6185 10.9725 2.00777L19.7537 10.6288C20.1213 10.9723 20.0832 12.9208 19.6001 12.9208H17.8144C17.7109 12.9208 17.8144 19.5709 17.8144 19.5709C17.8144 20.2006 17.3417 20.7158 16.764 20.7158H14.0605H13.31Z" stroke="#0E2522" stroke-width="1.8"/>
</svg>
