<svg width="77" height="76" viewBox="0 0 77 76" fill="none" xmlns="http://www.w3.org/2000/svg">
<path d="M72.9413 46.7818C72.7706 46.1851 72.5103 45.6263 72.1764 45.1203C75.0081 40.4772 76.4999 35.1628 76.4999 29.6864C76.4999 13.3174 63.1827 9.15527e-05 46.8137 9.15527e-05C39.0088 9.15527e-05 31.8978 3.02765 26.5933 7.97012C25.4757 6.90171 23.9711 6.278 22.3906 6.278C22.2092 6.278 22.0283 6.28602 21.8484 6.30205C20.2331 4.23811 17.7221 2.99128 15.0738 2.99128C10.8319 2.99128 7.29853 6.08207 6.60788 10.1302C4.11052 10.4259 2.1674 12.5561 2.1674 15.1315C2.1674 17.9085 4.41614 20.1678 7.18038 20.1678H18.6923C17.6777 23.157 17.1274 26.3586 17.1274 29.6864C17.1274 35.7492 18.9543 41.3933 22.0865 46.0973L2.41172 64.9521C2.40415 64.9593 2.39658 64.9668 2.38916 64.9742C-0.12972 67.4932 -0.12972 71.5919 2.38916 74.1109C3.6486 75.3703 5.30302 76.0001 6.95744 76.0001C8.61185 76.0001 10.2663 75.3703 11.5257 74.1109C11.5331 74.1035 11.5406 74.0959 11.5478 74.0883L30.402 54.413C35.1063 57.5453 40.7505 59.3725 46.8137 59.3725C51.4708 59.3725 55.9244 58.3261 60.0564 56.2616H71.6759C74.3358 56.2616 76.4999 54.0974 76.4999 51.4375C76.4999 49.2152 74.9895 47.339 72.9413 46.7818ZM7.18053 17.199C6.07234 17.199 5.13618 16.2522 5.13618 15.1313C5.13618 13.9912 6.06373 13.0637 7.20383 13.0637H7.96989C8.78967 13.0637 9.4542 12.3992 9.4542 11.5794C9.4542 8.48072 11.9752 5.95976 15.0738 5.95976C17.0658 5.95976 18.8683 6.98082 19.8956 8.69135C20.2388 9.26266 20.9205 9.53533 21.5628 9.35795C21.831 9.28404 22.1095 9.24648 22.3906 9.24648C23.1917 9.24648 23.9548 9.56027 24.5247 10.0985C22.6584 12.2197 21.0893 14.6084 19.8831 17.1991H7.18053V17.199ZM9.4165 72.022C8.0542 73.3733 5.84643 73.3699 4.48843 72.0118C3.13028 70.6538 3.12687 68.446 4.47819 67.0835L17.927 54.1952L22.3045 58.5728L9.4165 72.022ZM24.3586 56.4288L20.0706 52.1407L23.8681 48.5014C25.1064 50.009 26.4903 51.3927 27.9977 52.6312L24.3586 56.4288ZM20.0961 29.6862C20.0961 14.9541 32.0817 2.96857 46.8138 2.96857C61.5459 2.96857 73.5315 14.9541 73.5315 29.6862C73.5315 34.4219 72.2927 39.0221 69.9362 43.0805C69.0861 42.6278 68.1195 42.3716 67.101 42.3716C67.0314 42.3716 66.9619 42.3728 66.8926 42.3752C69.2976 38.581 70.5628 34.2205 70.5628 29.6864C70.5628 16.5912 59.909 5.93735 46.8138 5.93735C42.9653 5.93735 39.1409 6.88108 35.7542 8.66656C35.0291 9.04892 34.7511 9.94663 35.1333 10.6719C35.5155 11.397 36.4134 11.6748 37.1386 11.2928C40.1001 9.73111 43.4457 8.90583 46.8137 8.90583C58.272 8.90583 67.5941 18.2279 67.5941 29.6862C67.5941 33.5524 66.5433 37.2738 64.5432 40.5321C63.1508 39.6061 61.4962 39.0851 59.7842 39.0851C55.5423 39.0851 52.0088 42.176 51.3183 46.224C49.0709 46.49 47.2725 48.2417 46.9349 50.4666C46.8962 50.4666 46.8558 50.4666 46.8138 50.4666C35.3555 50.4666 26.0334 41.1446 26.0334 29.6862C26.0334 26.3179 26.8585 22.9725 28.4196 20.0118C28.8019 19.2865 28.5241 18.3888 27.7988 18.0065C27.0738 17.6241 26.1759 17.9021 25.7935 18.6272C24.0084 22.0132 23.0646 25.8374 23.0646 29.6862C23.0646 42.7815 33.7183 53.4353 46.8137 53.4353C47.0327 53.4353 47.2141 53.4347 47.3851 53.4317C48.035 54.7655 49.2546 55.7701 50.7235 56.1235C49.4409 56.3101 48.1365 56.4039 46.8138 56.4039C32.0815 56.4039 20.0961 44.4184 20.0961 29.6862ZM71.6761 53.2929H51.8908C50.7826 53.2929 49.8464 52.3461 49.8464 51.2253C49.8464 50.0852 50.774 49.1576 51.9141 49.1576H52.6801C53.4999 49.1576 54.1644 48.4931 54.1644 47.6733C54.1644 44.5747 56.6854 42.0537 59.784 42.0537C61.7761 42.0537 63.5785 43.0748 64.6058 44.7851C64.9489 45.3566 65.6306 45.6293 66.273 45.4517C66.5414 45.3777 66.8198 45.3403 67.1008 45.3403C68.7163 45.3403 70.0757 46.6 70.1958 48.2083C70.2535 48.9831 70.899 49.5821 71.6759 49.5821C72.6991 49.5821 73.5313 50.4144 73.5313 51.4375C73.5313 52.4607 72.6991 53.2929 71.6761 53.2929Z" fill="#0E2522"/>
</svg>
