<svg width="25" height="27" viewBox="0 0 25 27" fill="none" xmlns="http://www.w3.org/2000/svg">
<path d="M12.5 11.0158C13.2516 11.0158 13.9863 10.793 14.6112 10.3754C15.2361 9.95786 15.7231 9.36438 16.0107 8.67002C16.2984 7.97566 16.3736 7.21161 16.227 6.47448C16.0804 5.73735 15.7184 5.06025 15.187 4.52882C14.6556 3.99738 13.9785 3.63546 13.2413 3.48884C12.5042 3.34221 11.7402 3.41747 11.0458 3.70508C10.3514 3.99269 9.75796 4.47975 9.34042 5.10465C8.92287 5.72956 8.7 6.46425 8.7 7.21582C8.7 8.22364 9.10036 9.19019 9.81299 9.90283C10.5256 10.6155 11.4922 11.0158 12.5 11.0158Z" stroke="black" stroke-width="1.6"/>
<path d="M19.5339 21.2449C19.4894 21.2887 19.4261 21.3158 19.3571 21.3158H5.64286C5.57391 21.3158 5.51059 21.2887 5.4661 21.2449C5.42209 21.2016 5.4 21.1459 5.4 21.0908C5.4 19.2455 6.14453 17.4729 7.47451 16.1637C8.80497 14.8541 10.6124 14.1158 12.5 14.1158C14.3876 14.1158 16.195 14.8541 17.5255 16.1637C18.8555 17.4729 19.6 19.2455 19.6 21.0908C19.6 21.1459 19.5779 21.2016 19.5339 21.2449L20.1653 21.8863L19.5339 21.2449Z" stroke="black" stroke-width="1.8"/>
</svg>
