<svg width="28" height="29" viewBox="0 0 28 29" fill="none" xmlns="http://www.w3.org/2000/svg">
<g clip-path="url(#clip0_167_2095)">
<path d="M20.5238 24.2008L20.5037 24.1999L20.4837 24.2C20.4258 24.2002 20.3688 24.1868 20.3172 24.1607L14.3713 21.0479L14.0002 20.8536L13.6292 21.0479L7.67916 24.1629L7.67788 24.1635C7.61716 24.1955 7.54869 24.2097 7.48027 24.2047C7.41186 24.1996 7.34622 24.1755 7.29083 24.135C7.23546 24.0945 7.19254 24.0393 7.16697 23.9756C7.14141 23.912 7.13421 23.8424 7.14621 23.7749L7.14622 23.7749L8.31288 17.2065L8.38714 16.7884L8.08248 16.4926L3.28087 11.8309C3.2352 11.7843 3.20276 11.7264 3.18692 11.6631C3.17138 11.6009 3.17241 11.5358 3.18985 11.4742C3.21158 11.4119 3.24972 11.3566 3.3003 11.3142C3.35279 11.2701 3.41659 11.2416 3.48446 11.232L3.48715 11.2316L10.1372 10.2633L10.5549 10.2024L10.7405 9.82321L13.6688 3.83821L13.6688 3.83822L13.6702 3.83533C13.7002 3.77334 13.7471 3.72106 13.8055 3.68448C13.8638 3.64789 13.9313 3.62849 14.0002 3.62849C14.0691 3.62849 14.1366 3.64789 14.1949 3.68448C14.2533 3.72106 14.3002 3.77334 14.3302 3.83533L14.3302 3.83535L14.3336 3.84215L17.2969 9.81548L17.4833 10.1912L17.8983 10.2516L24.5483 11.2199L24.551 11.2203C24.6188 11.23 24.6826 11.2584 24.7351 11.3025C24.7857 11.345 24.8238 11.4003 24.8456 11.4625C24.863 11.5241 24.864 11.5892 24.8485 11.6514C24.8327 11.7147 24.8002 11.7726 24.7546 11.8192L19.9529 16.481L19.6483 16.7768L19.7225 17.1949L20.8892 23.7632L20.8891 23.7632L20.891 23.7729C20.9041 23.8417 20.8972 23.9127 20.8713 23.9777L21.614 24.2748L20.8712 23.9777C20.8458 24.0414 20.803 24.0966 20.7477 24.1372C20.682 24.1821 20.6034 24.2045 20.5238 24.2008Z" fill="#FFC440" stroke="black" stroke-width="1.6"/>
</g>
<defs>
<clipPath id="clip0_167_2095">
<rect width="28" height="28" fill="white" transform="translate(0 0.5)"/>
</clipPath>
</defs>
</svg>
