<svg width="16" height="16" viewBox="0 0 16 16" fill="none" xmlns="http://www.w3.org/2000/svg">
<g clip-path="url(#clip0_528_352)">
<path d="M11.7298 13.5005L11.7173 13.5L11.7047 13.5C11.6786 13.5001 11.6528 13.4941 11.6294 13.4823L8.23199 11.7037L8.00009 11.5823L7.76818 11.7037L4.36818 13.4837L4.36738 13.4841C4.33977 13.4986 4.30866 13.5051 4.27756 13.5028L4.2408 14.0015L4.27756 13.5028C4.24646 13.5005 4.21663 13.4896 4.19145 13.4712L3.89637 13.8748L4.19145 13.4712C4.16628 13.4528 4.14677 13.4277 4.13515 13.3987C4.12353 13.3698 4.12026 13.3382 4.12571 13.3075L4.12571 13.3074L4.79238 9.55411L4.83879 9.2928L4.64838 9.10793L1.905 6.44446C1.88442 6.42336 1.8698 6.39716 1.86264 6.36853C1.85568 6.34069 1.85603 6.31154 1.86363 6.28392C1.87357 6.25611 1.89074 6.23141 1.9134 6.21239C1.93727 6.19236 1.96627 6.17941 1.99711 6.17503L1.9988 6.17479L5.7988 5.62145L6.05991 5.58343L6.17588 5.34642L7.84921 1.92642L7.84921 1.92642L7.85009 1.92461C7.86373 1.89644 7.88504 1.87267 7.91157 1.85604C7.9381 1.83942 7.96878 1.8306 8.00009 1.8306C8.0314 1.8306 8.06207 1.83942 8.0886 1.85604L8.35415 1.43239L8.0886 1.85604C8.11513 1.87267 8.13644 1.89644 8.15009 1.92461L8.15007 1.92462L8.15217 1.92888L9.84551 5.34221L9.96199 5.57702L10.2214 5.61479L14.0214 6.16812L14.0231 6.16836C14.0539 6.17275 14.0829 6.18569 14.1068 6.20572L14.4283 5.82278L14.1068 6.20572C14.1294 6.22475 14.1466 6.24944 14.1565 6.27725C14.1641 6.30487 14.1645 6.33402 14.1575 6.36186C14.1504 6.39048 14.1358 6.41667 14.1152 6.43778L11.3718 9.10126L11.1814 9.28614L11.2278 9.54745L11.8945 13.3008L11.8944 13.3008L11.8956 13.3069C11.9015 13.3381 11.8984 13.3704 11.8866 13.3999C11.8751 13.4287 11.8558 13.4536 11.831 13.472C11.8013 13.4922 11.7658 13.5022 11.7298 13.5005Z" fill="#FFFDF7" stroke="black"/>
</g>
<defs>
<clipPath id="clip0_528_352">
<rect width="16" height="16" fill="white"/>
</clipPath>
</defs>
</svg>
