<svg width="24" height="25" viewBox="0 0 24 25" fill="none" xmlns="http://www.w3.org/2000/svg">
<path d="M22.4463 10.4346L9.661 23.2198L7.22935 20.7882C7.22935 20.7882 7.82863 19.9408 7.84448 19.2724C7.86423 18.4399 7.67193 17.8214 7.04277 17.1922C6.41361 16.563 5.79507 16.3707 4.96253 16.3905C4.29418 16.4063 3.44678 17.0056 3.44678 17.0056L1.01514 14.574L13.8004 1.78871L16.232 4.22036C16.232 4.22036 15.6355 4.95117 15.6169 5.7361C15.5972 6.56865 15.7895 7.18718 16.4186 7.81634C17.0478 8.4455 17.6663 8.6378 18.4989 8.61806C19.2838 8.59944 20.0146 8.00292 20.0146 8.00292L22.4463 10.4346Z" fill="white"/>
<path d="M1.0157 14.574L6.28621 9.38969L14.8557 18.0257L9.66032 23.2186L7.22991 20.7882C7.22991 20.7882 7.8292 19.9408 7.84505 19.2725C7.86479 18.4399 7.67249 17.8214 7.04333 17.1922C6.41418 16.5631 5.79564 16.3708 4.96309 16.3905C4.29475 16.4064 3.44735 17.0057 3.44735 17.0057L1.0157 14.574Z" fill="#DC555E"/>
<path d="M12.2676 16.2673L9.29556 13.2953" stroke="#0E2522" stroke-width="1.2"/>
<path d="M8.21436 12.2145L5.78271 9.78289" stroke="#0E2522" stroke-width="1.2"/>
<path d="M22.4467 10.4346L9.66148 23.2198L7.22984 20.7882C7.22984 20.7882 7.82912 19.9408 7.84497 19.2724C7.86471 18.4399 7.67241 17.8214 7.04326 17.1922C6.4141 16.563 5.79556 16.3707 4.96302 16.3905C4.29467 16.4063 3.44727 17.0056 3.44727 17.0056L1.01562 14.574L13.8009 1.78871L16.2325 4.22036C16.2325 4.22036 15.636 4.95117 15.6174 5.7361C15.5977 6.56865 15.79 7.18718 16.4191 7.81634C17.0483 8.4455 17.6668 8.6378 18.4994 8.61806C19.2843 8.59944 20.0151 8.00292 20.0151 8.00292L22.4467 10.4346Z" stroke="#0E2522" stroke-width="1.2"/>
</svg>
