<svg width="25" height="25" viewBox="0 0 25 25" fill="none" xmlns="http://www.w3.org/2000/svg">
<path d="M13.0742 15.953L10.1022 12.981" stroke="#0E2522" stroke-width="1.8"/>
<path d="M9.021 11.9001L6.58935 9.4685" stroke="#0E2522" stroke-width="1.8"/>
<path d="M23.0954 10.2783L10.5629 22.8108L8.1312 20.3792C8.1312 20.3792 8.71619 19.5461 8.72528 18.8845C8.7366 18.0604 8.54009 17.4461 7.91093 16.8169C7.28177 16.1877 6.66745 15.9912 5.84332 16.0026C5.18174 16.0116 4.34864 16.5966 4.34864 16.5966L1.91699 14.165L14.4495 1.63243L16.8812 4.06408C16.8812 4.06408 16.2978 4.78177 16.2871 5.55876C16.2758 6.38288 16.4723 6.9972 17.1015 7.62636C17.7306 8.25552 18.3449 8.45203 19.1691 8.44071C19.9461 8.43004 20.6638 7.84664 20.6638 7.84664L23.0954 10.2783Z" stroke="#0E2522" stroke-width="1.8"/>
</svg>
