<svg width="22" height="20" viewBox="0 0 22 20" fill="none" xmlns="http://www.w3.org/2000/svg">
<path d="M5.65924 13.2021C5.65924 13.2021 5.65924 3.42707 5.65924 2.90766C5.65924 2.38825 6.13722 1.8688 6.61519 1.86878C7.09317 1.86876 9.24405 1.86889 9.24405 1.86889H12.8289H16.4137C16.4137 1.86889 18.5646 1.86875 19.0425 1.86878C19.5205 1.86881 19.9985 2.38825 19.9985 2.90766C19.9985 3.42707 19.9985 16.2117 19.9985 16.2117C19.9985 17.6283 18.2526 18.5627 17.2965 18.5627M5.65924 13.2021C5.65924 13.2021 2.30549 13.2021 1.65376 13.2021C1.29379 13.2021 1.002 13.5192 1.00197 13.9104C1.00192 14.6188 1.00198 15.5033 1.00202 16.2117C1.00207 16.9941 2.23736 18.5627 2.95729 18.5627C3.60909 18.5627 17.0939 18.5627 17.2965 18.5627M5.65924 13.2021C5.65924 13.2021 13.3858 13.2021 14.0377 13.2021C14.3976 13.2021 14.6895 13.5192 14.6894 13.9104C14.6894 14.6188 14.6895 15.5033 14.6895 16.2117C14.6895 17.1897 15.6962 18.5627 17.2965 18.5627M17.2965 18.5627C15.4252 18.5627 18.0602 18.5627 17.2965 18.5627Z" stroke="black" stroke-width="1.8"/>
<path d="M7.83203 7.95295C7.83203 7.51113 8.1902 7.15295 8.63203 7.15295H15.6891C16.1309 7.15295 16.4891 7.51113 16.4891 7.95295C16.4891 8.39478 16.1309 8.75295 15.6891 8.75295H8.63203C8.1902 8.75295 7.83203 8.39478 7.83203 7.95295Z" fill="#0E2522"/>
<path d="M7.83203 4.95295C7.83203 4.51113 8.1902 4.15295 8.63203 4.15295H13.5833C14.0251 4.15295 14.3833 4.51113 14.3833 4.95295C14.3833 5.39478 14.0251 5.75295 13.5833 5.75295H8.63203C8.1902 5.75295 7.83203 5.39478 7.83203 4.95295Z" fill="#0E2522"/>
</svg>
